
<global>
amp_veltrack=0
ampeg_release=0.35
</global>

<group>
group_label=Group_0-64
lpc_hicc1=64
lpc_locc1=0

<region>
hikey=A#5
hivel=127
lokey=A5
lovel=1
lpc=EQ2tQQnt4cE05bhB5ShIwfOQfkEfT0rBZSA8QSPTk8BCRqFApZk5P2fnnT7dQx9AbM+OPyZcNEB+lki/SgT0P3eSh0CM/7G/0GuNQL4FM8AhxqtAyhCSv1bQv0BPVX/A
lpc_rms=-30.26
pitch_keycenter=A#5
sample=Piccolo_invertedturn_minor_PP_A#4.opus
</region>

<region>
hikey=A#6
hivel=127
lokey=A6
lovel=1
lpc=bQW9QbnKjMHvKaVBiXbnwNNPZUFSbjJAC5UAQcJ9C0HPN+FAMuogQXn1zUDZlChBnNyhwCAY371/6xxBD4pXwLacsECGhovAljnSPwZSBj9fgTnApqwkviR4eMDw27S/
lpc_rms=-27.74
pitch_keycenter=A#6
sample=Piccolo_invertedturn_minor_PP_A#5.opus
</region>

<region>
hikey=C6
hivel=127
lokey=B5
lovel=1
lpc=I/sxQZbehMEzsnRBY7wswWEQLkFeFtPA4hnWQK3mesD6G3BAfWEkvwWbGkDcGve+kUXgPzFH7D6DfQ8/lifuPxtCBj9zs6o+1cG4P0EDPz/K9U4+/nOVP7x6XMBbDkpA
lpc_rms=-38.22
pitch_keycenter=C6
sample=Piccolo_invertedturn_minor_PP_C5.opus
</region>

<region>
hikey=C7
hivel=127
lokey=B6
lovel=1
lpc=U8bwQUs9p8G7wc9BQ/KgwCU8d0FWwwBBDZSSQci+AUCxz6lB9IPTQNSZdkGjwF7BQruDQRFJRUBmZZlAqq+uQGlf3j6D4rG951/BP1dX8z8kY53AnrOyQOYxvb4B7ENA
lpc_rms=-24.38
pitch_keycenter=C7
sample=Piccolo_invertedturn_minor_PP_C6.opus
</region>

<region>
hikey=D6
hivel=127
lokey=C#6
lovel=1
lpc=87EcQkt9MMLa19dBz+ebwTBWiEHJ64HAn1R5QS4OKsEqOEtB2K02wPkyTkEFVYzAgYrGQLh5K8CG7zlBByoUv40Z9UBA5Y294oXtQOLnlMAqE/LAfjugQBde1EDmQ5JA
lpc_rms=-29.18
pitch_keycenter=D6
sample=Piccolo_invertedturn_minor_PP_D5.opus
</region>

<region>
hikey=D7
hivel=127
lokey=C#7
lovel=1
lpc=X2O+QXc2esGAtYxBrNOJvxX4H0FLnEtBF4vvQI6BJEGoBzFBlvgxQbTMwsDysFpBh6HhQLwLnEB7ZAxBEt3jvxUJ5kD0ESlAGhsmQLtCa0AnBwzA0xIMQbN2M8DMzElA
lpc_rms=-23.66
pitch_keycenter=D7
sample=Piccolo_invertedturn_minor_PP_D6.opus
</region>

<region>
hivel=127
key=E5
lovel=1
lpc=Od1YQSP32cE9veZBYdrZwWJLxkHNZ5PBdgdlQaFjRcE3FR5BVKThwB20pUDVEyzAzkEYQFch+77j94a/sAJYPyutKT4DzWa/GXv1Pxhee78WZNk+EJ6OPdmHOr4qBIo/
lpc_rms=-37.68
sample=Piccolo_invertedturn_minor_PP_E4.opus
</region>

<region>
hikey=E6
hivel=127
lokey=D#6
lovel=1
lpc=XKyWQbz/ncFPil5BO9gBwaY2/0CT8Qc9iGdlQPOep75IpeVAq54Iv1cUoUAUWf8/An8oQN31REA4nSNA86EuQDbokEBDDVLAnWAvwD/5uUBdaRJASmh+QMLxNMBgDyFA
lpc_rms=-32.22
pitch_keycenter=E6
sample=Piccolo_invertedturn_minor_PP_E5.opus
</region>

<region>
hikey=E7
hivel=127
lokey=D#7
lovel=1
lpc=o5sTQi6WhsF+UeVBEE+Hv0UVvEEJVWRB3lmYQUFtWUEFaCJBHhx5wVEQk0Fpouq/RVHUQH1WX8ADCDi/0i8fwPjJmD9PBrRAtgMewKCVJEE4DN/ATmy4QH8W6ryjkQ0/
lpc_rms=-21.44
pitch_keycenter=E7
sample=Piccolo_invertedturn_minor_PP_E6.opus
</region>

<region>
hikey=F#5
hivel=127
lokey=F5
lovel=1
lpc=tJcJQYugdsGt5V5B0wE0wSN0QkHgYiDBZUUFQUOG3cCDbKZA3ZRIwMafGEDt5Uu/vzatP/IF8r1CVBO/udExPqnDUD77BhY/3yEsPzyauD6JcK2+Be3hvN5EQ7+TNfU/
lpc_rms=-39.94
pitch_keycenter=F#5
sample=Piccolo_invertedturn_minor_PP_F#4.opus
</region>

<region>
hikey=F#6
hivel=127
lokey=F6
lovel=1
lpc=bmVlQUR1acE5NUVBwjG0wK9RC0EfuYU+nnWGQNH9MkCUegxAe6nAQLC+HkAkAJpALq+VQKCipkCm6gxAObbcPi2UEECiYH9AhHRjQN0S2j+kFhM9qhQUQI12/z3fkyZA
lpc_rms=-32.67
pitch_keycenter=F#6
sample=Piccolo_invertedturn_minor_PP_F#5.opus
</region>

<region>
hikey=F#7
hivel=127
lokey=F7
lovel=1
lpc=TGXAQQbyhMGKV9NBm/kdwQ4ix0HBC72/8wa1QaR9d78ZbYM/OxSTQeMbv7/f73ZB4KsEO02XGkEgMSs/ok/oQJAytz9iOTRB7HWGv1bGI0GCQN2/ByjtQK5pfD4Glt9A
lpc_rms=-11.81
pitch_keycenter=F#7
sample=Piccolo_invertedturn_minor_PP_F#6.opus
</region>

<region>
hikey=G#5
hivel=127
lokey=G5
lovel=1
lpc=8XKQQYRZ58GBp+lBQjKqwSDNrUHOm47Bkh6HQbUCP8EhqjFBmni5wM9kvkCgtNK/qlazP/qa9j/aGDs+Zb8WQGgLo79RlGdAnL8Mv25sPUDtkZG/8hNdQDY6RMAw175A
lpc_rms=-32.07
pitch_keycenter=G#5
sample=Piccolo_invertedturn_minor_PP_G#4.opus
</region>

<region>
hikey=G#6
hivel=127
lokey=G6
lovel=1
lpc=N+JZQSPMJcHW1CdByDGAwOYTtkDoCZq/+crXQLnsUUDGG3dA6G8jQNIaikArn80/MUiAQHGplz/4r4TAceopQDc1HEBc06i/u1BuQFkUq75xVka/hD/KvzNXA79GHIu/
lpc_rms=-33.15
pitch_keycenter=G#6
sample=Piccolo_invertedturn_minor_PP_G#5.opus
</region>

<region>
hikey=G#7
hivel=127
lokey=G7
lovel=1
lpc=oHlbQWQQ0cAxtVZBEQNsPwKWU0HTTNBA74U2QUf6GcCtcY9BzKsGQDqeRkGHSHZADrQLQStHrUDiPepAs+jhQJaFqUDc8dtAMn2QQL/PwkBevURAY9WXQFDdCT85Pe4/
lpc_rms=-14.58
pitch_keycenter=G#7
sample=Piccolo_invertedturn_minor_PP_G#6.opus
</region>
</group>

<group>
group_label=Group_65-127
lpc_hicc1=127
lpc_locc1=65

<region>
hikey=A#5
hivel=127
lokey=A5
lovel=1
lpc=VJKIQS9+ycFssdxB5M+bwQqElkG/ZlrBXjtkQWMzCMEMYu1AZtp0v/L2FEBNiJg/+6k7P8n97j/UoAxA/SeKvU5lk0CxoYDAejnoQG0RT8CpDrJA/g9JwPY/30CbkUzA
lpc_rms=-25.00
pitch_keycenter=A#5
sample=Piccolo_invertedturn_minor_FF_A#4.opus
</region>

<region>
hikey=A#6
hivel=127
lokey=A6
lovel=1
lpc=QSWrQX0agsEyO59Bnsq+wMAJYkES+pY/oqAwQdrRCkFllNdA20c8QZrgiEAOLktB1LmGwIHtCED5okVBTjaowJDXEEHFPrPA5/TFQAllisCYN9A/9lgDwE8XXL6UOLy/
lpc_rms=-21.75
pitch_keycenter=A#6
sample=Piccolo_invertedturn_minor_FF_A#5.opus
</region>

<region>
hikey=C6
hivel=127
lokey=B5
lovel=1
lpc=57CSQcg71MGtkcpB0EyLwYfXhUHnNCvB+nkuQVwWqsBlR8RAIfiJv6W7G0DIZ+Q/Jw6UP9rHnD9x2QtAdyewP0MMsD+PhLM/P8yTPznzPkCmnIi/AJvCQCNnR8HBnwZB
lpc_rms=-23.78
pitch_keycenter=C6
sample=Piccolo_invertedturn_minor_FF_C5.opus
</region>

<region>
hikey=C7
hivel=127
lokey=B6
lovel=1
lpc=PC8vQq618MEC7QNCc+EcPv8SvUHdwitBJdiZQVACHEEJhdpB12w4QbU0z0FBP8nBuN3dQd6KAEGIPia+vJMTQUXTi8BnQ81AJZCOPz1A2b7JgI3ArD2BQNaokr60SCBA
lpc_rms=-15.67
pitch_keycenter=C7
sample=Piccolo_invertedturn_minor_FF_C6.opus
</region>

<region>
hikey=D6
hivel=127
lokey=C#6
lovel=1
lpc=7gmvQRPW48GwmaNBKTM0wVfeT0EKE+TAWcULQbDuUcCeJLlAoKMevrSy/T9zcUBAItK3PzPIpj+P0iFA+9G5P0mNEkC9lv0/VDwRQBjHDsDl2sDAoWADQbOcGUBMGtK/
lpc_rms=-26.65
pitch_keycenter=D6
sample=Piccolo_invertedturn_minor_FF_D5.opus
</region>

<region>
hikey=D7
hivel=127
lokey=C#7
lovel=1
lpc=LAOMQb9LMMHjQm5BSYpswLKjQUGLUplA9lEcQXZbwUDVkBNB1K2bQBnYH8AAIS9BnOd+QBj9tEA8AilA/aNVQBY5SEBVwkJARDMuQM6+iUCgtvo+pfqCQL5Az79rT3VA
lpc_rms=-24.65
pitch_keycenter=D7
sample=Piccolo_invertedturn_minor_FF_D6.opus
</region>

<region>
hivel=127
key=E5
lovel=1
lpc=Gq1NQWWi6sGnAwJCY9TbwWN+vEFGhpTBxUxYQXDFMcHn+T1BjUIcwbjn00C49aLAAseHQK7S6r8XlMy+yEqmPyZOHT5LIPW+1CWNP+71db+yKpK+nRwIQONeTcC8pihA
lpc_rms=-31.70
sample=Piccolo_invertedturn_minor_FF_E4.opus
</region>

<region>
hikey=E6
hivel=127
lokey=D#6
lovel=1
lpc=Z/JaQdWOfsH0YXZBi1vlwPugCEEIGpfA39TRQAOMtr93xcpAXj2XP5hvNED//A1AQCBUQHyAKEA+RhNA9ShAQFL5LUDjo8m/oG6JPbmujEBRLQO++HVvvvBOCECWNN0/
lpc_rms=-29.18
pitch_keycenter=E6
sample=Piccolo_invertedturn_minor_FF_E5.opus
</region>

<region>
hikey=E7
hivel=127
lokey=D#7
lovel=1
lpc=LdzPQWdlh8HezKtBA+JjwIx5pUG4CI1A6E1OQZVHgEGf6ITA7HE9wHG4tUGnY3vAflk/QXZio8At/v9AHasfPw5faj5/oEtBOukewESarj+TFQRAPCQ4PsRm+z9aRvi+
lpc_rms=-21.37
pitch_keycenter=E7
sample=Piccolo_invertedturn_minor_FF_E6.opus
</region>

<region>
hikey=F#5
hivel=127
lokey=F5
lovel=1
lpc=iq37QJBygMHjYoFBJKc3werGGkFsDfvAlkTIQCLNgcD/sBBAbOE1v6bC7D5BrB0/N05Zvp3Yaj5XDA4+mDbQPeZeRL6XdWU/0XHWvcr4sD6uX8++yRjbP0QgMsBvRBlA
lpc_rms=-33.58
pitch_keycenter=F#5
sample=Piccolo_invertedturn_minor_FF_F#4.opus
</region>

<region>
hikey=F#6
hivel=127
lokey=F6
lovel=1
lpc=UiK0QYvxv8H7b7FBe8AfwaxWSEGIL6DAtY4EQeSbWEAx07NAP+hfQOwJiUCU9Z5APPQjQBgT3kDl4yFAqZx7v6Nhd8CBlhRBA4ITv7SRij8RVmM/EExMQK3SHb/bdZ+/
lpc_rms=-25.31
pitch_keycenter=F#6
sample=Piccolo_invertedturn_minor_FF_F#5.opus
</region>

<region>
hikey=F#7
hivel=127
lokey=F7
lovel=1
lpc=TGXAQQbyhMGKV9NBm/kdwQ4ix0HBC72/8wa1QaR9d78ZbYM/OxSTQeMbv7/f73ZB4KsEO02XGkEgMSs/ok/oQJAytz9iOTRB7HWGv1bGI0GCQN2/ByjtQK5pfD4Glt9A
lpc_rms=-11.81
pitch_keycenter=F#7
sample=Piccolo_invertedturn_minor_FF_F#6.opus
</region>

<region>
hikey=G#5
hivel=127
lokey=G5
lovel=1
lpc=nf90QQaX6MENRgpC7RTPwRHdnUEG6VLBODkxQaNFl8AX9kZAGK1Mv9NfY0BXaem/elEeQMNf5b7Xsk9A8YEpwCfmhUBZF4m/5YIOQP/HEL8LO4Y/cXWVQFjLysD0nNRA
lpc_rms=-24.82
pitch_keycenter=G#5
sample=Piccolo_invertedturn_minor_FF_G#4.opus
</region>

<region>
hikey=G#6
hivel=127
lokey=G6
lovel=1
lpc=F8ntQec1B8ITZApC7bmowaEBnkGqtM3AEowqQVXWmUATEIVAGlufQKTbEECbRdVAVm/9v5ELwkAQbJrBsOuJQY/U/cCgUrs+9b+vQJQYCcFCoG9AdZbjwOnF3D8J2ZXA
lpc_rms=-20.55
pitch_keycenter=G#6
sample=Piccolo_invertedturn_minor_FF_G#5.opus
</region>

<region>
hikey=G#7
hivel=127
lokey=G7
lovel=1
lpc=oHlbQWQQ0cAxtVZBEQNsPwKWU0HTTNBA74U2QUf6GcCtcY9BzKsGQDqeRkGHSHZADrQLQStHrUDiPepAs+jhQJaFqUDc8dtAMn2QQL/PwkBevURAY9WXQFDdCT85Pe4/
lpc_rms=-14.58
pitch_keycenter=G#7
sample=Piccolo_invertedturn_minor_FF_G#6.opus
</region>
</group>